<svg width="87" height="84" viewBox="0 0 87 84" fill="none" xmlns="http://www.w3.org/2000/svg">
<g style="mix-blend-mode:color-dodge">
<path d="M53.3957 38.0253C63.807 38.0253 72.247 29.5853 72.247 19.1741C72.247 8.76279 63.807 0.322786 53.3957 0.322786C42.9844 0.322786 34.5444 8.76279 34.5444 19.1741C34.5444 29.5853 42.9844 38.0253 53.3957 38.0253Z" fill="#FFFBE6" fill-opacity="0.35"/>
</g>
<path d="M51.3462 16.7152H14.4633C11.0683 16.7152 8.31616 19.4674 8.31616 22.8623V57.6962C8.31616 61.0912 11.0683 63.8434 14.4633 63.8434H51.3462C54.7412 63.8434 57.4934 61.0912 57.4934 57.6962V22.8623C57.4934 19.4674 54.7412 16.7152 51.3462 16.7152Z" fill="#FFCBCB"/>
<path d="M22.6597 49.5293V31.0293C22.6597 27.9097 25.7839 25.9541 28.2947 27.5017L43.3014 36.7518C45.8318 38.3115 45.8318 42.2471 43.3014 43.8068L28.2947 53.0568C25.7839 54.6045 22.6597 52.6489 22.6597 49.5293Z" fill="#DD425F"/>
</svg>
